<svg xmlns="http://www.w3.org/2000/svg" width="64" height="65" viewBox="0 0 64 65" fill="none">
  <path d="M49.0619 54.3038H11.0917C10.0506 54.3038 9.25439 53.4481 9.25439 52.3291V23.3671C9.25439 22.2481 10.0506 21.3924 11.0917 21.3924H49.0619C50.103 21.3924 50.8992 22.2481 50.8992 23.3671V52.3291C50.8992 53.4481 50.103 54.3038 49.0619 54.3038Z" fill="#EFEFEF"/>
  <path d="M9.25467 23.1865C9.25467 22.4573 10.2473 21.3924 10.9286 21.3924H48.4541C49.0732 21.3924 49.9496 21.3924 50.1044 22.6273C50.1326 22.8525 50.3009 23.038 50.5138 23.038C50.7268 23.038 50.9029 22.8526 50.8707 22.628C50.6918 21.3832 49.6988 20.5696 48.4541 20.5696H10.9286C9.55205 20.5696 8.4834 21.7133 8.4834 23.1865V35.3797C8.4834 35.8341 8.82866 36.2025 9.25467 36.2025V23.1865Z" fill="#444444"/>
  <path d="M49.0619 54.3038H11.0917C10.0506 54.3038 9.25439 53.4581 9.25439 52.3521V26.3291H50.8992V52.3521C50.8992 53.4581 50.103 54.3038 49.0619 54.3038Z" fill="white"/>
  <path fill-rule="evenodd" clip-rule="evenodd" d="M8.4834 27.0125C8.4834 26.635 8.76519 26.3291 9.11285 26.3291H38.9458C39.1587 26.3291 39.3314 26.5134 39.3314 26.7405C39.3314 26.9677 39.1587 27.1519 38.9458 27.1519H9.2546V37.4659C9.2546 37.6931 9.08193 37.8773 8.869 37.8773C8.65607 37.8773 8.4834 37.6931 8.4834 37.4659V27.0125ZM50.5138 47.7215C50.3008 47.7215 50.1282 47.9058 50.1282 48.1329V48.9557C50.1282 49.1829 50.3008 49.3671 50.5138 49.3671C50.7267 49.3671 50.8994 49.1829 50.8994 48.9557V48.1329C50.8994 47.9058 50.7267 47.7215 50.5138 47.7215ZM29.3058 55.538C29.3058 55.3108 29.4785 55.1266 29.6914 55.1266H31.2338C31.4467 55.1266 31.6194 55.3108 31.6194 55.538C31.6194 55.7652 31.4467 55.9494 31.2338 55.9494H29.6914C29.4785 55.9494 29.3058 55.7652 29.3058 55.538Z" fill="#444444"/>
  <path d="M11.5681 24.6835C11.994 24.6835 12.3393 24.3152 12.3393 23.8607C12.3393 23.4063 11.994 23.038 11.5681 23.038C11.1421 23.038 10.7969 23.4063 10.7969 23.8607C10.7969 24.3152 11.1421 24.6835 11.5681 24.6835Z" fill="#444444"/>
  <path d="M14.6525 24.6835C15.0785 24.6835 15.4237 24.3152 15.4237 23.8607C15.4237 23.4063 15.0785 23.038 14.6525 23.038C14.2266 23.038 13.8813 23.4063 13.8813 23.8607C13.8813 24.3152 14.2266 24.6835 14.6525 24.6835Z" fill="#444444"/>
  <path d="M17.7375 24.6835C18.1634 24.6835 18.5087 24.3152 18.5087 23.8607C18.5087 23.4063 18.1634 23.038 17.7375 23.038C17.3116 23.038 16.9663 23.4063 16.9663 23.8607C16.9663 24.3152 17.3116 24.6835 17.7375 24.6835Z" fill="#444444"/>
  <rect x="24.75" y="28.7975" width="24.6835" height="0.822785" rx="0.411392" fill="#EFEFEF"/>
  <rect x="26.395" y="31.2658" width="24.6835" height="0.822785" rx="0.411392" fill="#EFEFEF"/>
  <rect x="24.75" y="33.7342" width="24.6835" height="0.822785" rx="0.411392" fill="#EFEFEF"/>
  <path d="M23.1362 20.5696L29.3058 13.9873L35.4754 20.5696" stroke="#444444" stroke-linecap="round" stroke-linejoin="round"/>
  <path d="M30.9611 11.0483V8.91974H30.0768H29.1924V11.5805C29.1924 11.5805 30.8432 12.0461 30.8432 13.7756C30.8432 15.0394 29.9589 16.0372 28.8386 16.0372C27.8363 16.0372 27.0108 15.239 26.8929 14.1747C26.8929 14.3077 26.834 14.5073 26.834 14.6403C26.834 16.6359 28.308 18.2323 30.0768 18.2323C31.8455 18.2323 33.3196 16.6359 33.3196 14.6403C33.3196 12.8443 32.3762 11.4474 30.9611 11.0483Z" fill="#EFEFEF"/>
  <path d="M31.1888 10.5439C31.1888 10.7104 31.2829 10.8606 31.4272 10.9241C32.7062 11.4876 33.5472 12.8894 33.5472 14.6402C33.5472 16.8185 31.946 18.5126 30.0768 18.5126C28.2077 18.5126 26.6064 16.8185 26.6064 14.6402C26.6064 14.584 26.6125 14.5288 26.6189 14.4829C26.6252 14.4383 26.6333 14.3922 26.6402 14.3531L26.6411 14.3482C26.6486 14.3057 26.655 14.2701 26.6594 14.2376C26.661 14.2268 26.662 14.2179 26.6629 14.2106C26.6644 14.1969 26.6652 14.1831 26.6654 14.1693C26.6679 14.0037 26.7787 13.9018 26.8802 13.8947C26.9806 13.8876 27.1002 13.9721 27.1185 14.1371C27.2179 15.0343 27.9245 15.7567 28.8387 15.7567C29.8533 15.7567 30.6158 14.8625 30.6158 13.7755C30.6158 13.0409 30.2712 12.5681 29.8939 12.264C29.7058 12.1124 29.5159 12.0089 29.372 11.9432C29.3005 11.9105 29.2413 11.8877 29.2008 11.8732C29.1805 11.8659 29.165 11.8608 29.155 11.8577L29.1529 11.8571L29.148 11.8555L29.1411 11.8534C29.0503 11.8272 28.9649 11.7246 28.9649 11.5803V8.91963C28.9649 8.74281 29.0868 8.63922 29.1924 8.63922H30.9613C31.0669 8.63922 31.1888 8.74281 31.1888 8.91963V10.5439Z" fill="#AAAAAA" stroke="#444444" stroke-miterlimit="10" stroke-linecap="round" stroke-linejoin="round"/>
  <path d="M61.696 24.6835H42.416V45.2532H61.696V24.6835Z" fill="white"/>
  <path fill-rule="evenodd" clip-rule="evenodd" d="M42.0301 26.3291C41.8172 26.3291 41.6445 26.1449 41.6445 25.9177V24.6836C41.6445 24.2291 41.9898 23.8608 42.4157 23.8608H43.5725C43.7855 23.8608 43.9581 24.045 43.9581 24.2722C43.9581 24.4993 43.7855 24.6836 43.5725 24.6836H42.4157V25.9177C42.4157 26.1449 42.2431 26.3291 42.0301 26.3291ZM50.3205 24.2722C50.3205 24.045 50.1479 23.8608 49.9349 23.8608H47.2357C47.0228 23.8608 46.8501 24.045 46.8501 24.2722C46.8501 24.4993 47.0228 24.6836 47.2357 24.6836H49.9349C50.1479 24.6836 50.3205 24.4993 50.3205 24.2722ZM54.1765 23.8608C53.9636 23.8608 53.7909 24.045 53.7909 24.2722C53.7909 24.4993 53.9636 24.6836 54.1765 24.6836H56.8757C57.0887 24.6836 57.2613 24.4993 57.2613 24.2722C57.2613 24.045 57.0887 23.8608 56.8757 23.8608H54.1765ZM60.5389 23.8608C60.3261 23.8608 60.1533 24.045 60.1533 24.2722C60.1533 24.4993 60.3261 24.6836 60.5389 24.6836H61.6957V25.9177C61.6957 26.1449 61.8685 26.3291 62.0813 26.3291C62.2942 26.3291 62.4669 26.1449 62.4669 25.9177V24.6836C62.4669 24.2291 62.1214 23.8608 61.6957 23.8608H61.3101H60.5389ZM62.4669 29.826C62.4669 29.5988 62.2942 29.4146 62.0813 29.4146C61.8685 29.4146 61.6957 29.5988 61.6957 29.826V32.7057C61.6957 32.9329 61.8685 33.1171 62.0813 33.1171C62.2942 33.1171 62.4669 32.9329 62.4669 32.7057V29.826ZM62.4669 37.231C62.4669 37.0039 62.2942 36.8196 62.0813 36.8196C61.8685 36.8196 61.6957 37.0039 61.6957 37.231V40.1108C61.6957 40.3379 61.8685 40.5222 62.0813 40.5222C62.2942 40.5222 62.4669 40.3379 62.4669 40.1108V37.231ZM62.4669 44.019C62.4669 43.7918 62.2942 43.6076 62.0813 43.6076C61.8685 43.6076 61.6957 43.7918 61.6957 44.019V45.2532H60.5389C60.3261 45.2532 60.1533 45.4374 60.1533 45.6646C60.1533 45.8917 60.3261 46.076 60.5389 46.076H61.6957C62.1214 46.076 62.4669 45.7076 62.4669 45.2532V44.019ZM56.8757 46.076C57.0887 46.076 57.2613 45.8917 57.2613 45.6646C57.2613 45.4374 57.0887 45.2532 56.8757 45.2532H54.1765C53.9636 45.2532 53.7909 45.4374 53.7909 45.6646C53.7909 45.8917 53.9636 46.076 54.1765 46.076H56.8757ZM49.9349 46.076C50.1479 46.076 50.3205 45.8917 50.3205 45.6646C50.3205 45.4374 50.1479 45.2532 49.9349 45.2532H47.2357C47.0228 45.2532 46.8501 45.4374 46.8501 45.6646C46.8501 45.8917 47.0228 46.076 47.2357 46.076H49.9349ZM43.5725 46.076C43.7855 46.076 43.9581 45.8917 43.9581 45.6646C43.9581 45.4374 43.7855 45.2532 43.5725 45.2532H42.4157V44.019C42.4157 43.7918 42.2431 43.6076 42.0301 43.6076C41.8172 43.6076 41.6445 43.7918 41.6445 44.019V45.2532C41.6445 45.7076 41.9898 46.076 42.4157 46.076H43.5725ZM41.6445 40.1108C41.6445 40.3379 41.8172 40.5222 42.0301 40.5222C42.2431 40.5222 42.4157 40.3379 42.4157 40.1108V37.231C42.4157 37.0039 42.2431 36.8196 42.0301 36.8196C41.8172 36.8196 41.6445 37.0039 41.6445 37.231V40.1108ZM41.6445 32.7057C41.6445 32.9329 41.8172 33.1171 42.0301 33.1171C42.2431 33.1171 42.4157 32.9329 42.4157 32.7057V29.826C42.4157 29.5988 42.2431 29.4146 42.0301 29.4146C41.8172 29.4146 41.6445 29.5988 41.6445 29.826V32.7057Z" fill="#808080"/>
  <path d="M41.6447 24.6835C42.0707 24.6835 42.4159 24.3152 42.4159 23.8607C42.4159 23.4063 42.0707 23.038 41.6447 23.038C41.2188 23.038 40.8735 23.4063 40.8735 23.8607C40.8735 24.3152 41.2188 24.6835 41.6447 24.6835Z" fill="#808080"/>
  <path d="M62.467 24.6835C62.8927 24.6835 63.2382 24.3152 63.2382 23.8607C63.2382 23.4063 62.8927 23.038 62.467 23.038C62.0413 23.038 61.6958 23.4063 61.6958 23.8607C61.6958 24.3152 62.0413 24.6835 62.467 24.6835Z" fill="#808080"/>
  <path d="M41.6447 46.8987C42.0707 46.8987 42.4159 46.5304 42.4159 46.076C42.4159 45.6215 42.0707 45.2532 41.6447 45.2532C41.2188 45.2532 40.8735 45.6215 40.8735 46.076C40.8735 46.5304 41.2188 46.8987 41.6447 46.8987Z" fill="#808080"/>
  <path d="M62.467 46.8987C62.8927 46.8987 63.2382 46.5304 63.2382 46.076C63.2382 45.6215 62.8927 45.2532 62.467 45.2532C62.0413 45.2532 61.6958 45.6215 61.6958 46.076C61.6958 46.5304 62.0413 46.8987 62.467 46.8987Z" fill="#808080"/>
  <path d="M58.1529 42.7848H46.7301C45.633 42.7848 44.7295 41.8729 44.7295 40.7655V29.1712C44.7295 28.0638 45.633 27.1519 46.7301 27.1519H58.1529C59.7679 27.1519 60.1535 28.0638 60.1535 29.1712V40.7004C60.1535 41.962 59.3823 42.7848 58.1529 42.7848Z" fill="white"/>
  <path fill-rule="evenodd" clip-rule="evenodd" d="M46.6622 27.1519C45.9271 27.1519 44.7297 28.3262 44.7297 29.072V40.8648C44.7297 41.962 45.5009 42.7848 46.6622 42.7848H58.2212C59.3825 42.7848 60.1537 41.962 60.1537 40.7279V29.072C60.1537 27.9747 59.3825 27.1519 58.2212 27.1519H46.6622ZM43.9585 29.072C43.9585 27.5651 45.1769 26.3291 46.6622 26.3291H58.2212C59.7064 26.3291 60.9249 27.5651 60.9249 29.072V40.7985C60.9249 42.3572 59.7203 43.6076 58.2212 43.6076H46.6622C45.1769 43.6076 43.9585 42.3716 43.9585 40.8648V29.072Z" fill="#444444"/>
  <path d="M48.5859 32.9114C48.5859 32.457 48.2406 32.0886 47.8147 32.0886C47.3887 32.0886 47.0435 32.457 47.0435 32.9114V39.4937C47.0435 39.9481 47.3887 40.3164 47.8147 40.3164C48.2406 40.3164 48.5859 39.9481 48.5859 39.4937V32.9114Z" fill="#FF6F3D"/>
  <path d="M51.6703 36.2025C51.6703 35.7481 51.3251 35.3797 50.8991 35.3797C50.4732 35.3797 50.1279 35.7481 50.1279 36.2025V39.4937C50.1279 39.9481 50.4732 40.3164 50.8991 40.3164C51.3251 40.3164 51.6703 39.9481 51.6703 39.4937V36.2025Z" fill="#FF6F3D"/>
  <path d="M54.7548 34.557C54.7548 34.1026 54.4095 33.7342 53.9836 33.7342C53.5577 33.7342 53.2124 34.1026 53.2124 34.557V39.4937C53.2124 39.9481 53.5577 40.3165 53.9836 40.3165C54.4095 40.3165 54.7548 39.9481 54.7548 39.4937V34.557Z" fill="#FF6F3D"/>
  <path d="M57.8398 30.443C57.8398 29.9886 57.4945 29.6202 57.0686 29.6202C56.6426 29.6202 56.2974 29.9886 56.2974 30.443V39.4937C56.2974 39.9481 56.6426 40.3164 57.0686 40.3164C57.4945 40.3164 57.8398 39.9481 57.8398 39.4937V30.443Z" fill="#FF6F3D"/>
  <path d="M61.696 50.1899H33.1616V63.3544H61.696V50.1899Z" fill="white"/>
  <path fill-rule="evenodd" clip-rule="evenodd" d="M32.7666 51.8355C32.559 51.8355 32.3906 51.6558 32.3906 51.4343V50.1899C32.3906 49.7355 32.7359 49.3671 33.1618 49.3671H34.2608C34.4737 49.3671 34.6464 49.5513 34.6464 49.7785C34.6464 50.0057 34.4737 50.1899 34.2608 50.1899H33.1425V51.4343C33.1425 51.6558 32.9742 51.8355 32.7666 51.8355ZM41.7896 49.7785C41.7896 49.5513 41.6169 49.3671 41.404 49.3671H38.4156C38.2027 49.3671 38.03 49.5513 38.03 49.7785C38.03 50.0057 38.2027 50.1899 38.4156 50.1899H41.404C41.6169 50.1899 41.7896 50.0057 41.7896 49.7785ZM45.9348 49.3671C45.7219 49.3671 45.5492 49.5513 45.5492 49.7785C45.5492 50.0057 45.7219 50.1899 45.9348 50.1899H48.9232C49.1361 50.1899 49.3088 50.0057 49.3088 49.7785C49.3088 49.5513 49.1361 49.3671 48.9232 49.3671H45.9348ZM53.454 49.3671C53.2411 49.3671 53.0684 49.5513 53.0684 49.7785C53.0684 50.0057 53.2411 50.1899 53.454 50.1899H56.4424C56.6553 50.1899 56.828 50.0057 56.828 49.7785C56.828 49.5513 56.6553 49.3671 56.4424 49.3671H53.454ZM60.5972 49.3671C60.3844 49.3671 60.2116 49.5513 60.2116 49.7785C60.2116 50.0057 60.3844 50.1899 60.5972 50.1899H61.7155V51.4343C61.7155 51.6558 61.8836 51.8355 62.0911 51.8355C62.2993 51.8355 62.4674 51.6558 62.4674 51.4343V50.1899C62.4674 49.7355 62.1219 49.3671 61.6962 49.3671H60.5972ZM62.4674 55.322C62.4674 55.1005 62.2993 54.9209 62.0911 54.9209C61.8836 54.9209 61.7155 55.1005 61.7155 55.322V58.2223C61.7155 58.4438 61.8836 58.6234 62.0911 58.6234C62.2993 58.6234 62.4674 58.4438 62.4674 58.2223V55.322ZM62.4674 62.1104C62.4674 61.8882 62.2993 61.7089 62.0911 61.7089C61.8836 61.7089 61.7155 61.8882 61.7155 62.1104V63.3544H60.5972C60.3844 63.3544 60.2116 63.5387 60.2116 63.7658C60.2116 63.9929 60.3844 64.1772 60.5972 64.1772H61.6962C62.1219 64.1772 62.4674 63.8086 62.4674 63.3544V62.1104ZM56.4424 64.1772C56.6553 64.1772 56.828 63.9929 56.828 63.7658C56.828 63.5387 56.6553 63.3544 56.4424 63.3544H53.454C53.2411 63.3544 53.0684 63.5387 53.0684 63.7658C53.0684 63.9929 53.2411 64.1772 53.454 64.1772H56.4424ZM48.9232 64.1772C49.1361 64.1772 49.3088 63.9929 49.3088 63.7658C49.3088 63.5387 49.1361 63.3544 48.9232 63.3544H45.9348C45.7219 63.3544 45.5492 63.5387 45.5492 63.7658C45.5492 63.9929 45.7219 64.1772 45.9348 64.1772H48.9232ZM41.404 64.1772C41.6169 64.1772 41.7896 63.9929 41.7896 63.7658C41.7896 63.5387 41.6169 63.3544 41.404 63.3544H38.4156C38.2027 63.3544 38.03 63.5387 38.03 63.7658C38.03 63.9929 38.2027 64.1772 38.4156 64.1772H41.404ZM34.2608 64.1772C34.4737 64.1772 34.6464 63.9929 34.6464 63.7658C34.6464 63.5387 34.4737 63.3544 34.2608 63.3544H33.1425V62.1104C33.1425 61.8882 32.9742 61.7089 32.7666 61.7089C32.559 61.7089 32.3906 61.8882 32.3906 62.1104V63.3544C32.3906 63.8086 32.7359 64.1772 33.1618 64.1772H34.2608ZM32.3906 58.2223C32.3906 58.4438 32.559 58.6234 32.7666 58.6234C32.9742 58.6234 33.1425 58.4438 33.1425 58.2223V55.322C33.1425 55.1005 32.9742 54.9209 32.7666 54.9209C32.559 54.9209 32.3906 55.1005 32.3906 55.322V58.2223Z" fill="#808080"/>
  <path d="M32.3903 50.1899C32.8163 50.1899 33.1615 49.8215 33.1615 49.3671C33.1615 48.9127 32.8163 48.5443 32.3903 48.5443C31.9644 48.5443 31.6191 48.9127 31.6191 49.3671C31.6191 49.8215 31.9644 50.1899 32.3903 50.1899Z" fill="#808080"/>
  <path d="M62.467 50.1899C62.8927 50.1899 63.2382 49.8215 63.2382 49.3671C63.2382 48.9127 62.8927 48.5443 62.467 48.5443C62.0413 48.5443 61.6958 48.9127 61.6958 49.3671C61.6958 49.8215 62.0413 50.1899 62.467 50.1899Z" fill="#808080"/>
  <path d="M32.3903 65C32.8163 65 33.1615 64.6314 33.1615 64.1772C33.1615 63.723 32.8163 63.3544 32.3903 63.3544C31.9644 63.3544 31.6191 63.723 31.6191 64.1772C31.6191 64.6314 31.9644 65 32.3903 65Z" fill="#808080"/>
  <path d="M62.467 65C62.8927 65 63.2382 64.6314 63.2382 64.1772C63.2382 63.723 62.8927 63.3544 62.467 63.3544C62.0413 63.3544 61.6958 63.723 61.6958 64.1772C61.6958 64.6314 62.0413 65 62.467 65Z" fill="#808080"/>
  <path d="M40.1028 52.6582H36.2468C35.8209 52.6582 35.4756 53.0266 35.4756 53.481C35.4756 53.9354 35.8209 54.3038 36.2468 54.3038H40.1028C40.5287 54.3038 40.874 53.9354 40.874 53.481C40.874 53.0266 40.5287 52.6582 40.1028 52.6582Z" fill="#BDECFF"/>
  <path d="M40.1028 55.9494H36.2468C35.8209 55.9494 35.4756 56.3177 35.4756 56.7722C35.4756 57.2266 35.8209 57.5949 36.2468 57.5949H40.1028C40.5287 57.5949 40.874 57.2266 40.874 56.7722C40.874 56.3177 40.5287 55.9494 40.1028 55.9494Z" fill="#BDECFF"/>
  <path d="M40.1028 59.2405H36.2468C35.8209 59.2405 35.4756 59.6089 35.4756 60.0633C35.4756 60.5177 35.8209 60.8861 36.2468 60.8861H40.1028C40.5287 60.8861 40.874 60.5177 40.874 60.0633C40.874 59.6089 40.5287 59.2405 40.1028 59.2405Z" fill="#BDECFF"/>
  <path d="M46.2717 52.6582H42.4157C41.9898 52.6582 41.6445 53.0266 41.6445 53.481C41.6445 53.9354 41.9898 54.3038 42.4157 54.3038H46.2717C46.6977 54.3038 47.0429 53.9354 47.0429 53.481C47.0429 53.0266 46.6977 52.6582 46.2717 52.6582Z" fill="#BDECFF"/>
  <path d="M46.2717 55.9494H42.4157C41.9898 55.9494 41.6445 56.3177 41.6445 56.7722C41.6445 57.2266 41.9898 57.5949 42.4157 57.5949H46.2717C46.6977 57.5949 47.0429 57.2266 47.0429 56.7722C47.0429 56.3177 46.6977 55.9494 46.2717 55.9494Z" fill="#BDECFF"/>
  <path d="M46.2717 59.2405H42.4157C41.9898 59.2405 41.6445 59.6089 41.6445 60.0633C41.6445 60.5177 41.9898 60.8861 42.4157 60.8861H46.2717C46.6977 60.8861 47.0429 60.5177 47.0429 60.0633C47.0429 59.6089 46.6977 59.2405 46.2717 59.2405Z" fill="#BDECFF"/>
  <path d="M52.4417 52.6582H48.5857C48.1597 52.6582 47.8145 53.0266 47.8145 53.481C47.8145 53.9354 48.1597 54.3038 48.5857 54.3038H52.4417C52.8676 54.3038 53.2129 53.9354 53.2129 53.481C53.2129 53.0266 52.8676 52.6582 52.4417 52.6582Z" fill="#BDECFF"/>
  <path d="M52.4417 55.9494H48.5857C48.1597 55.9494 47.8145 56.3177 47.8145 56.7722C47.8145 57.2266 48.1597 57.5949 48.5857 57.5949H52.4417C52.8676 57.5949 53.2129 57.2266 53.2129 56.7722C53.2129 56.3177 52.8676 55.9494 52.4417 55.9494Z" fill="#BDECFF"/>
  <path d="M52.4417 59.2405H48.5857C48.1597 59.2405 47.8145 59.6089 47.8145 60.0633C47.8145 60.5177 48.1597 60.8861 48.5857 60.8861H52.4417C52.8676 60.8861 53.2129 60.5177 53.2129 60.0633C53.2129 59.6089 52.8676 59.2405 52.4417 59.2405Z" fill="#BDECFF"/>
  <path d="M58.6111 52.6582H54.7551C54.3292 52.6582 53.9839 53.0266 53.9839 53.481C53.9839 53.9354 54.3292 54.3038 54.7551 54.3038H58.6111C59.037 54.3038 59.3823 53.9354 59.3823 53.481C59.3823 53.0266 59.037 52.6582 58.6111 52.6582Z" fill="#BDECFF"/>
  <path d="M58.6111 55.9494H54.7551C54.3292 55.9494 53.9839 56.3177 53.9839 56.7722C53.9839 57.2266 54.3292 57.5949 54.7551 57.5949H58.6111C59.037 57.5949 59.3823 57.2266 59.3823 56.7722C59.3823 56.3177 59.037 55.9494 58.6111 55.9494Z" fill="#BDECFF"/>
  <path d="M58.6111 59.2405H54.7551C54.3292 59.2405 53.9839 59.6089 53.9839 60.0633C53.9839 60.5177 54.3292 60.8861 54.7551 60.8861H58.6111C59.037 60.8861 59.3823 60.5177 59.3823 60.0633C59.3823 59.6089 59.037 59.2405 58.6111 59.2405Z" fill="#BDECFF"/>
  <path d="M27.7628 39.4937H1.54199V59.2405H27.7628V39.4937Z" fill="white"/>
  <path d="M22.8553 42.7848H6.44976C5.41682 42.7848 4.62695 43.5998 4.62695 44.6655V54.0687C4.62695 55.1344 5.41682 55.9494 6.44976 55.9494H22.8553C23.8883 55.9494 24.6781 55.1344 24.6781 54.0687V44.6655C24.6781 43.5998 23.8883 42.7848 22.8553 42.7848Z" fill="white"/>
  <path d="M15.8678 53.0271L11.0069 46.8987L4.62695 54.7293C4.62695 55.8869 5.41682 56.7722 6.44976 56.7722H22.8553C23.8883 56.7722 24.6781 55.8869 24.6781 54.7293L19.5134 48.9416L15.8678 53.0271Z" fill="#FF6F3D"/>
  <path d="M16.1952 47.7215C17.0471 47.7215 17.7376 46.9848 17.7376 46.076C17.7376 45.1671 17.0471 44.4304 16.1952 44.4304C15.3434 44.4304 14.6528 45.1671 14.6528 46.076C14.6528 46.9848 15.3434 47.7215 16.1952 47.7215Z" fill="#FF6F3D"/>
  <path fill-rule="evenodd" clip-rule="evenodd" d="M3.85596 44.5544C3.85596 43.095 4.94281 41.962 6.34277 41.962H22.9627C24.3627 41.962 25.4495 43.095 25.4495 44.5544V54.1797C25.4495 55.6392 24.3627 56.7721 22.9627 56.7721H6.34277C4.94281 56.7721 3.85596 55.6392 3.85596 54.1797V44.5544ZM6.34277 42.7848C5.39836 42.7848 4.62716 43.6076 4.62716 44.5544V54.1797C4.62716 55.1266 5.39836 55.9493 6.34277 55.9493H22.9627C23.9071 55.9493 24.6783 55.1266 24.6783 54.1797V44.5544C24.6783 43.6076 23.9071 42.7848 22.9627 42.7848H6.34277Z" fill="#444444"/>
  <path d="M0.7712 39.4937C1.19713 39.4937 1.5424 39.1253 1.5424 38.6709C1.5424 38.2165 1.19713 37.8481 0.7712 37.8481C0.345266 37.8481 0 38.2165 0 38.6709C0 39.1253 0.345266 39.4937 0.7712 39.4937Z" fill="#808080"/>
  <path d="M28.5344 39.4937C28.9603 39.4937 29.3056 39.1253 29.3056 38.6709C29.3056 38.2165 28.9603 37.8481 28.5344 37.8481C28.1084 37.8481 27.7632 38.2165 27.7632 38.6709C27.7632 39.1253 28.1084 39.4937 28.5344 39.4937Z" fill="#808080"/>
  <path d="M0.7712 60.8861C1.19713 60.8861 1.5424 60.5177 1.5424 60.0633C1.5424 59.6089 1.19713 59.2405 0.7712 59.2405C0.345266 59.2405 0 59.6089 0 60.0633C0 60.5177 0.345266 60.8861 0.7712 60.8861Z" fill="#808080"/>
  <path d="M28.5344 60.8861C28.9603 60.8861 29.3056 60.5177 29.3056 60.0633C29.3056 59.6089 28.9603 59.2405 28.5344 59.2405C28.1084 59.2405 27.7632 59.6089 27.7632 60.0633C27.7632 60.5177 28.1084 60.8861 28.5344 60.8861Z" fill="#808080"/>
  <path fill-rule="evenodd" clip-rule="evenodd" d="M1.17976 41.238C0.954259 41.238 0.771484 41.043 0.771484 40.8024V39.4937C0.771484 39.0392 1.11675 38.6709 1.54268 38.6709H2.68406C2.90555 38.6709 3.08508 38.8624 3.08508 39.0987C3.08508 39.335 2.90555 39.5266 2.68406 39.5266H1.58803V40.8024C1.58803 41.043 1.40526 41.238 1.17976 41.238ZM8.11331 38.6709C7.89182 38.6709 7.71228 38.8624 7.71228 39.0987C7.71228 39.335 7.89182 39.5266 8.11331 39.5266H11.9385C12.1599 39.5266 12.3395 39.335 12.3395 39.0987C12.3395 38.8624 12.1599 38.6709 11.9385 38.6709H8.11331ZM17.3677 38.6709C17.1462 38.6709 16.9667 38.8624 16.9667 39.0987C16.9667 39.335 17.1462 39.5266 17.3677 39.5266H21.1929C21.4143 39.5266 21.5939 39.335 21.5939 39.0987C21.5939 38.8624 21.4143 38.6709 21.1929 38.6709H17.3677ZM26.6221 38.6709C26.4006 38.6709 26.2211 38.8624 26.2211 39.0987C26.2211 39.335 26.4006 39.5266 26.6221 39.5266H27.7181V40.8024C27.7181 41.043 27.9009 41.238 28.1264 41.238C28.3519 41.238 28.5347 41.043 28.5347 40.8024V39.4937C28.5347 39.0392 28.1894 38.6709 27.7635 38.6709H26.6221ZM28.1264 47.5843C28.3519 47.5843 28.5347 47.3893 28.5347 47.1488V44.4546C28.5347 44.214 28.3519 44.019 28.1264 44.019C27.9009 44.019 27.7181 44.214 27.7181 44.4546V47.1488C27.7181 47.3893 27.9009 47.5843 28.1264 47.5843ZM28.5347 51.5854C28.5347 51.3448 28.3519 51.1498 28.1264 51.1498C27.9009 51.1498 27.7181 51.3448 27.7181 51.5854V54.2796C27.7181 54.5202 27.9009 54.7152 28.1264 54.7152C28.3519 54.7152 28.5347 54.5202 28.5347 54.2796V51.5854ZM28.5347 57.9318C28.5347 57.6912 28.3519 57.4962 28.1264 57.4962C27.9009 57.4962 27.7181 57.6912 27.7181 57.9318V59.2076H26.6221C26.4006 59.2076 26.2211 59.3991 26.2211 59.6354C26.2211 59.8717 26.4006 60.0633 26.6221 60.0633H27.7635C28.1894 60.0633 28.5347 59.6949 28.5347 59.2405V57.9318ZM21.1929 60.0633C21.4143 60.0633 21.5939 59.8717 21.5939 59.6354C21.5939 59.3991 21.4143 59.2076 21.1929 59.2076H17.3677C17.1462 59.2076 16.9667 59.3991 16.9667 59.6354C16.9667 59.8717 17.1462 60.0633 17.3677 60.0633H21.1929ZM11.9385 60.0633C12.1599 60.0633 12.3395 59.8717 12.3395 59.6354C12.3395 59.3991 12.1599 59.2076 11.9385 59.2076H8.11331C7.89182 59.2076 7.71228 59.3991 7.71228 59.6354C7.71228 59.8717 7.89182 60.0633 8.11331 60.0633H11.9385ZM2.68406 60.0633C2.90555 60.0633 3.08508 59.8717 3.08508 59.6354C3.08508 59.3991 2.90555 59.2076 2.68406 59.2076H1.58803V57.9318C1.58803 57.6912 1.40526 57.4962 1.17976 57.4962C0.954259 57.4962 0.771484 57.6912 0.771484 57.9318V59.2405C0.771484 59.6949 1.11675 60.0633 1.54268 60.0633H2.68406ZM0.771484 54.2796C0.771484 54.5202 0.954259 54.7152 1.17976 54.7152C1.40526 54.7152 1.58803 54.5202 1.58803 54.2796V51.5854C1.58803 51.3448 1.40526 51.1498 1.17976 51.1498C0.954259 51.1498 0.771484 51.3448 0.771484 51.5854V54.2796ZM0.771484 47.1488C0.771484 47.3893 0.954259 47.5843 1.17976 47.5843C1.40526 47.5843 1.58803 47.3893 1.58803 47.1488V44.4546C1.58803 44.214 1.40526 44.019 1.17976 44.019C0.954259 44.019 0.771484 44.214 0.771484 44.4546V47.1488Z" fill="#808080"/>
  <path d="M32.3904 5.93121C32.3904 6.15089 32.3422 6.36729 32.25 6.56146L31.4075 8.33621C31.1988 8.77582 30.79 9.05063 30.3448 9.05063H29.8088C29.3636 9.05063 28.9548 8.77582 28.7461 8.33621L27.9035 6.56146C27.8114 6.36729 27.7632 6.15089 27.7632 5.93121V1.34468C27.7632 0.602032 28.3018 0 28.9663 0H31.1873C31.8518 0 32.3904 0.602032 32.3904 1.34468V5.93121Z" fill="#EFEFEF"/>
  <path fill-rule="evenodd" clip-rule="evenodd" d="M30.3448 8.33621L31.6192 5.93121V0.822785H28.5344V5.93121L29.8088 8.33621H30.3448ZM32.25 6.56146C32.3422 6.36729 32.3904 6.15089 32.3904 5.93121V1.34468C32.3904 0.602032 31.8518 0 31.1873 0H28.9663C28.3018 0 27.7632 0.602032 27.7632 1.34468V5.93121C27.7632 6.15089 27.8114 6.36729 27.9035 6.56146L28.7461 8.33621C28.9548 8.77582 29.3636 9.05063 29.8088 9.05063H30.3448C30.79 9.05063 31.1988 8.77582 31.4075 8.33621L32.25 6.56146Z" fill="#444444"/>
</svg>
