<svg xmlns="http://www.w3.org/2000/svg" width="24" height="24" fill="none"><g clip-path="url(#a)"><mask id="b" width="24" height="24" x="0" y="0" maskUnits="userSpaceOnUse" style="mask-type:alpha"><path stroke="#000" stroke-linecap="round" stroke-linejoin="round" stroke-width="2.6" d="M16.023 9.348h4.992l-3.181-3.183a8.25 8.25 0 0 0-13.803 3.7m-1.046 9.78v-4.993m0 0h4.992m-4.992 0 3.18 3.183a8.25 8.25 0 0 0 13.803-3.7m1.047-9.779v4.99"/></mask><g mask="url(#b)"><path fill="#FF6F3D" d="M12 17.454 0 12v12h24V12l-12 5.454Z"/><path fill="#95C038" d="m0 12 12 5.455L24 12V7.09L12 12 0 7.09V12Z"/><path fill="#5DC0E8" d="M24 0H0v7.09L12 12l12-4.91V0Z"/><path stroke="#000" stroke-linecap="round" stroke-linejoin="round" stroke-opacity=".35" stroke-width="2.6" d="M16.023 9.348h4.992l-3.181-3.183a8.25 8.25 0 0 0-13.803 3.7m-1.046 9.78v-4.993m0 0h4.992m-4.992 0 3.18 3.183a8.25 8.25 0 0 0 13.803-3.7m1.047-9.779v4.99"/><mask id="c" width="24" height="24" x="0" y="0" maskUnits="userSpaceOnUse" style="mask-type:alpha"><path stroke="#000" stroke-linecap="round" stroke-linejoin="round" stroke-width="1.2" d="M16.023 9.348h4.992l-3.181-3.183a8.25 8.25 0 0 0-13.803 3.7m-1.046 9.78v-4.993m0 0h4.992m-4.992 0 3.18 3.183a8.25 8.25 0 0 0 13.803-3.7m1.047-9.779v4.99"/></mask><g mask="url(#c)"><path fill="#FF6F3D" d="M12 17.454 0 12v12h24V12l-12 5.454Z"/><path fill="#95C038" d="m0 12 12 5.455L24 12V7.09L12 12 0 7.09V12Z"/><path fill="#5DC0E8" d="M24 0H0v7.09L12 12l12-4.91V0Z"/></g></g></g><defs><clipPath id="a"><path fill="#fff" d="M0 0h24v24H0z"/></clipPath></defs></svg>