<svg width="16" height="16" viewBox="0 0 16 16" fill="none" xmlns="http://www.w3.org/2000/svg"><path fill-rule="evenodd" clip-rule="evenodd" d="M4.81058 4.89592C5.62762 4.07886 6.7542 3.57483 7.99991 3.57483C10.4909 3.57483 12.5103 5.59424 12.5103 8.08535H14.0103C14.0103 4.76584 11.3194 2.07483 7.99991 2.07483C6.34263 2.07483 4.84082 2.74658 3.75432 3.83086L3.75265 3.83248L3.73513 3.84966C3.72051 3.86409 3.70008 3.88447 3.67432 3.91069C3.62864 3.95717 3.56615 4.02203 3.4895 4.10464V2.82483H1.9895V5.83084C1.9895 6.24505 2.32529 6.58084 2.7395 6.58084H5.74545V5.08084H4.63022C4.67749 5.03055 4.71587 4.99087 4.74413 4.96211C4.76446 4.94143 4.77954 4.92641 4.7889 4.91717L4.7986 4.90765L4.79959 4.90669L4.79978 4.90651L4.80001 4.90628L4.80004 4.90626L4.80012 4.90617L4.80503 4.90147L4.81058 4.89592ZM7.99991 12.5959C5.5089 12.5959 3.4895 10.5765 3.4895 8.08535H1.9895C1.9895 11.4049 4.68044 14.0959 7.99991 14.0959C9.7973 14.0959 11.4098 13.3066 12.5106 12.0577V13.346H14.0106V10.34C14.0106 9.92578 13.6748 9.58999 13.2606 9.58999H10.2546V11.09H11.3641C10.5374 12.015 9.33627 12.5959 7.99991 12.5959Z" fill="#8C8C9C"/></svg>
