<svg width="16" height="16" viewBox="0 0 16 16" fill="none" xmlns="http://www.w3.org/2000/svg"><path fill-rule="evenodd" clip-rule="evenodd" d="M9.90681 2.70228C10.8432 1.76591 12.3613 1.76591 13.2977 2.70228C14.2341 3.63865 14.2341 5.15682 13.2977 6.09319L6.3841 13.0068C6.28565 13.1053 6.1623 13.1751 6.02723 13.2089L2.95451 13.977C2.69273 14.0425 2.41581 13.9658 2.22501 13.775C2.03421 13.5842 1.95751 13.3073 2.02295 13.0455L2.79113 9.97277C2.8249 9.8377 2.89474 9.71435 2.99319 9.6159L9.90681 2.70228ZM12.4824 3.56016C12.146 3.22378 11.1414 3.15729 10.8051 3.49367L10.1472 4.12626L11.9045 5.88354L12.6326 5.16811C12.969 4.83172 12.8188 3.89655 12.4824 3.56016ZM10.8989 6.82487L9.16777 5.16811L3.94515 10.5129L3.38464 12.5485L5.45449 11.8992L10.8989 6.82487Z" fill="#8C8C9C"/></svg>
