<svg xmlns="http://www.w3.org/2000/svg" width="24" height="24" fill="none"><g clip-path="url(#a)"><mask id="b" width="24" height="24" x="0" y="0" maskUnits="userSpaceOnUse" style="mask-type:alpha"><path stroke="#000" stroke-linecap="round" stroke-linejoin="round" stroke-width="2.6" d="m16.862 4.487 1.687-1.688a1.875 1.875 0 0 1 2.652 2.652L10.582 16.07a4.5 4.5 0 0 1-1.897 1.13L6 18l.8-2.685a4.5 4.5 0 0 1 1.13-1.897l8.932-8.931Zm0 0L19.5 7.125M18 14v4.75A2.25 2.25 0 0 1 15.75 21H5.25A2.25 2.25 0 0 1 3 18.75V8.25A2.25 2.25 0 0 1 5.25 6H10"/></mask><g mask="url(#b)"><path fill="#FF6F3D" d="M12 17.454 0 12v12h24V12l-12 5.454Z"/><path fill="#95C038" d="m0 12 12 5.455L24 12V7.09L12 12 0 7.09V12Z"/><path fill="#5DC0E8" d="M24 0H0v7.09L12 12l12-4.91V0Z"/><path stroke="#000" stroke-linecap="round" stroke-linejoin="round" stroke-opacity=".35" stroke-width="2.6" d="m16.862 4.487 1.687-1.688a1.875 1.875 0 0 1 2.652 2.652L10.582 16.07a4.5 4.5 0 0 1-1.897 1.13L6 18l.8-2.685a4.5 4.5 0 0 1 1.13-1.897l8.932-8.931Zm0 0L19.5 7.125M18 14v4.75A2.25 2.25 0 0 1 15.75 21H5.25A2.25 2.25 0 0 1 3 18.75V8.25A2.25 2.25 0 0 1 5.25 6H10"/><mask id="c" width="24" height="24" x="0" y="0" maskUnits="userSpaceOnUse" style="mask-type:alpha"><path stroke="#000" stroke-linecap="round" stroke-linejoin="round" stroke-width="1.2" d="m16.862 4.487 1.687-1.688a1.875 1.875 0 0 1 2.652 2.652L10.582 16.07a4.5 4.5 0 0 1-1.897 1.13L6 18l.8-2.685a4.5 4.5 0 0 1 1.13-1.897l8.932-8.931Zm0 0L19.5 7.125M18 14v4.75A2.25 2.25 0 0 1 15.75 21H5.25A2.25 2.25 0 0 1 3 18.75V8.25A2.25 2.25 0 0 1 5.25 6H10"/></mask><g mask="url(#c)"><path fill="#FF6F3D" d="M12 17.454 0 12v12h24V12l-12 5.454Z"/><path fill="#95C038" d="m0 12 12 5.455L24 12V7.09L12 12 0 7.09V12Z"/><path fill="#5DC0E8" d="M24 0H0v7.09L12 12l12-4.91V0Z"/></g></g></g><defs><clipPath id="a"><path fill="#fff" d="M0 0h24v24H0z"/></clipPath></defs></svg>