<svg width="16" height="16" viewBox="0 0 16 16" fill="none" xmlns="http://www.w3.org/2000/svg"><path fill-rule="evenodd" clip-rule="evenodd" d="M5.03895 10.6924C4.0771 9.89436 3.32088 8.95743 2.90079 8.3838C3.32088 7.81017 4.0771 6.87325 5.03895 6.07526C6.05358 5.23347 7.18409 4.63971 8.31549 4.63971C9.44689 4.63971 10.5774 5.23347 11.592 6.07526C12.5539 6.87325 13.3101 7.81017 13.7302 8.3838C13.3101 8.95743 12.5539 9.89436 11.592 10.6924C10.5774 11.5341 9.44689 12.1279 8.31549 12.1279C7.18409 12.1279 6.05358 11.5341 5.03895 10.6924ZM8.31549 3C6.54789 3 5.15567 4.04125 4.00005 5C2.82985 5.97084 1.95479 6.87086 1.50006 7.5C1.05334 8.11807 1.05338 8.88193 1.5001 9.5C1.95483 10.1291 2.82985 11.0291 4.00005 12C5.15567 12.9587 6.54789 13.8086 8.31549 13.8086C10.0831 13.8086 11.3444 12.9587 12.5 12C13.6702 11.0291 14.5453 10.1291 15 9.5C15.4468 8.88193 15.4468 8.11807 15 7.5C14.5453 6.87086 13.6702 5.97084 12.5 5C11.3444 4.04125 10.0831 3 8.31549 3ZM8.31549 6.68128C7.28159 6.68128 6.66549 7.3499 6.66549 8.3838C6.66549 9.41771 7.28159 9.99996 8.31549 9.99996C9.34939 9.99996 10 9.41771 10 8.3838C10 7.3499 9.34939 6.68128 8.31549 6.68128Z" fill="#8C8C9C"/></svg>
