<svg xmlns="http://www.w3.org/2000/svg" width="24" height="24" fill="none"><g clip-path="url(#a)"><mask id="b" width="24" height="24" x="0" y="0" maskUnits="userSpaceOnUse" style="mask-type:alpha"><path stroke="#000" stroke-linecap="round" stroke-linejoin="round" stroke-width="2.6" d="M2.036 12.322a1.012 1.012 0 0 1 0-.639C3.423 7.51 7.36 4.5 12 4.5c4.638 0 8.573 3.007 9.963 7.178.07.207.07.431 0 .639C20.577 16.49 16.64 19.5 12 19.5c-4.638 0-8.574-3.007-9.964-7.178Z"/><path stroke="#000" stroke-linecap="round" stroke-linejoin="round" stroke-width="2.6" d="M15 12a3 3 0 1 1-6 0 3 3 0 0 1 6 0Z"/></mask><g mask="url(#b)"><path fill="#FF6F3D" d="M12 17.454 0 12v12h24V12l-12 5.454Z"/><path fill="#95C038" d="m0 12 12 5.455L24 12V7.09L12 12 0 7.09V12Z"/><path fill="#5DC0E8" d="M24 0H0v7.09L12 12l12-4.91V0Z"/><path stroke="#000" stroke-linecap="round" stroke-linejoin="round" stroke-opacity=".35" stroke-width="2.6" d="M2.036 12.322a1.012 1.012 0 0 1 0-.639C3.423 7.51 7.36 4.5 12 4.5c4.638 0 8.573 3.007 9.963 7.178.07.207.07.431 0 .639C20.577 16.49 16.64 19.5 12 19.5c-4.638 0-8.574-3.007-9.964-7.178Z"/><path stroke="#000" stroke-linecap="round" stroke-linejoin="round" stroke-opacity=".35" stroke-width="2.6" d="M15 12a3 3 0 1 1-6 0 3 3 0 0 1 6 0Z"/><mask id="c" width="24" height="24" x="0" y="0" maskUnits="userSpaceOnUse" style="mask-type:alpha"><path stroke="#000" stroke-linecap="round" stroke-linejoin="round" stroke-width="1.2" d="M2.036 12.322a1.012 1.012 0 0 1 0-.639C3.423 7.51 7.36 4.5 12 4.5c4.638 0 8.573 3.007 9.963 7.178.07.207.07.431 0 .639C20.577 16.49 16.64 19.5 12 19.5c-4.638 0-8.574-3.007-9.964-7.178Z"/><path stroke="#000" stroke-linecap="round" stroke-linejoin="round" stroke-width="1.2" d="M15 12a3 3 0 1 1-6 0 3 3 0 0 1 6 0Z"/></mask><g mask="url(#c)"><path fill="#FF6F3D" d="M12 17.454 0 12v12h24V12l-12 5.454Z"/><path fill="#95C038" d="m0 12 12 5.455L24 12V7.09L12 12 0 7.09V12Z"/><path fill="#5DC0E8" d="M24 0H0v7.09L12 12l12-4.91V0Z"/></g></g></g><defs><clipPath id="a"><path fill="#fff" d="M0 0h24v24H0z"/></clipPath></defs></svg>