<svg xmlns="http://www.w3.org/2000/svg" width="269" height="163" viewBox="0 0 269 163" fill="none">
  <mask id="mask" style="mask-type:alpha;">
    <rect height="163" width="269" fill="#A6DCF2"/>
  </mask>
  <g mask="url(#mask)">
    <path opacity="0.2" fill-rule="evenodd" clip-rule="evenodd" d="M176.437 80.5143L295.593 29.125C305.933 24.5851 307.037 14.3 298.061 6.13458L193.245 -94.9282C182.552 -106.183 172.385 -110.376 156.728 -102.226L37.744 -51.0699C27.4037 -46.5301 26.2997 -36.2449 35.2761 -28.0795L135.354 73.1551C146.107 84.9731 156.883 87.9591 176.437 80.5143Z" fill="#4E8FD3" fill-opacity="0.21"/>
    <path opacity="0.25" fill-rule="evenodd" clip-rule="evenodd" d="M60.6559 132.292L-62.7485 100.377C-73.29 97.5019 -75.1577 87.5288 -66.9233 78.0842L28.7952 -37.8379C36.9197 -47.8692 51.9337 -53.6253 62.0694 -50.5946L185.474 -18.68C196.015 -15.8049 197.883 -5.83181 189.649 3.61282L93.9301 119.535C84.4842 131.298 70.6817 134.736 60.6559 132.292Z" fill="#4E8FD3" fill-opacity="0.21"/>
    <path opacity="0.3" fill-rule="evenodd" clip-rule="evenodd" d="M128.288 43.3727L126.766 -130.974C126.522 -145.92 119.249 -151.927 110.509 -144.403L4.22044 -59.1156C-4.94784 -51.9446 -12.1263 -34.1548 -11.6886 -19.6897L-10.1667 154.657C-9.92296 169.603 -2.65004 175.61 6.09042 168.086L112.379 82.7986C123.114 74.4968 128.298 57.4845 128.288 43.3727Z" fill="#4E8FD3" fill-opacity="0.21"/>
  </g>
</svg>
